<svg xmlns="http://www.w3.org/2000/svg" viewBox="0 0 512 512">
  <path fill="red" d="M447.62 64.39C406.1 22.87 350.88 0 292.18 0S178.25 22.87 136.74 64.39a218.39 218.39 0 00-64.39 155.43c0 53.69 19.12 104.43 54.13 144.46L4.4 486.37a15.02 15.02 0 0021.23 21.23l122.09-122.08c40.03 35 90.77 54.13 144.46 54.13a218.38 218.38 0 00155.43-64.39C489.13 333.75 512 278.54 512 219.83S489.13 105.9 447.62 64.39zm-21.24 289.64c-74 74-194.4 74-268.4 0-74-74-74-194.4 0-268.4 37-37.01 85.59-55.5 134.2-55.5 48.6 0 97.2 18.5 134.2 55.5 74 74 74 194.4 0 268.4z"/>
</svg>